HIERARCHY
ROOT hip
{
	OFFSET 0.000000 0.000000 0.000000 
	CHANNELS 6 Xposition Yposition Zposition Xrotation Zrotation Yrotation
	JOINT abdomen
	{
		OFFSET 0.000000 3.402643 0.000000 
		CHANNELS 3 Xrotation Zrotation Yrotation
		JOINT chest
		{
			OFFSET 0.000000 8.438565 -0.680529 
			CHANNELS 3 Xrotation Zrotation Yrotation
			JOINT neck
			{
				OFFSET 0.000000 10.207942 -0.272212 
				CHANNELS 3 Xrotation Zrotation Yrotation
				JOINT head
				{
					OFFSET 0.000000 3.130431 0.000000 
					CHANNELS 3 Xrotation Zrotation Yrotation
					End Site
					{
						OFFSET 0.000000 3.130435 0.000000 
					}
				}
			}
			JOINT lCollar
			{
				OFFSET 3.470700 6.669187 -0.816635 
				CHANNELS 3 Yrotation Zrotation Xrotation
				JOINT lShldr
				{
					OFFSET 3.198488 0.000000 0.000000 
					CHANNELS 3 Zrotation Yrotation Xrotation
					JOINT lForeArm
					{
						OFFSET 10.139888 0.000000 0.000000 
						CHANNELS 3 Yrotation Zrotation Xrotation
						JOINT lHand
						{
							OFFSET 8.370511 0.000000 0.000000 
							CHANNELS 3 Zrotation Yrotation Xrotation
							End Site
							{
								OFFSET 4.083176 0.000000 0.000000 
							}
						}
					}
				}
			}
			JOINT rCollar
			{
				OFFSET -3.470700 6.669187 -0.816635 
				CHANNELS 3 Yrotation Zrotation Xrotation
				JOINT rShldr
				{
					OFFSET -3.198488 0.000000 0.000000 
					CHANNELS 3 Zrotation Yrotation Xrotation
					JOINT rForeArm
					{
						OFFSET -10.139888 0.000000 0.000000 
						CHANNELS 3 Yrotation Zrotation Xrotation
						JOINT rHand
						{
							OFFSET -8.370511 0.000000 0.000000 
							CHANNELS 3 Zrotation Yrotation Xrotation
							End Site
							{
								OFFSET -4.083176 0.000000 0.000000 
							}
						}
					}
				}
			}
		}
	}
	JOINT lThigh
	{
		OFFSET 5.308129 -1.633274 1.361059 
		CHANNELS 3 Xrotation Zrotation Yrotation
		JOINT lShin
		{
			OFFSET -2.041588 -20.007561 0.000000 
			CHANNELS 3 Xrotation Zrotation Yrotation
			JOINT lFoot
			{
				OFFSET 0.000000 -19.190928 -1.224953 
				CHANNELS 3 Xrotation Yrotation Zrotation
				End Site
				{
					OFFSET 0.000000 -2.449906 4.627600 
				}
			}
		}
	}
	JOINT rThigh
	{
		OFFSET -5.308129 -1.633274 1.361059 
		CHANNELS 3 Xrotation Zrotation Yrotation
		JOINT rShin
		{
			OFFSET 2.041588 -20.007561 0.000000 
			CHANNELS 3 Xrotation Zrotation Yrotation
			JOINT rFoot
			{
				OFFSET 0.000000 -19.190928 -1.224953 
				CHANNELS 3 Xrotation Yrotation Zrotation
				End Site
				{
					OFFSET 0.000000 -2.449906 4.627600 
				}
			}
		}
	}
}
MOTION
Frames: 18
Frame Time: 0.058668
-4.309820 47.805958 7.690652 1.396620 0.790781 4.120970 -1.192030 1.072960 1.502761 -0.510870 0.459840 0.644040 18.621700 5.383840 -0.048305 16.048800 7.828880 0.582521 2.000000 -2.000000 0.000000 90.898201 172.233002 -6.815370 87.998596 -0.219624 0.136679 -179.904999 -179.884003 1.662330 -2.000000 2.000000 0.000000 -101.858002 -161.324005 1.915990 -77.813004 0.243711 0.133642 -0.062084 0.049055 -154.723999 -26.420626 0.783976 0.060114 52.728371 1.541058 3.657092 16.285183 -15.361322 4.429890 -16.069336 2.573451 0.562177 41.045723 -2.221817 -3.002315 7.526844 -4.392101 0.357884 
-3.255672 47.141476 7.705278 0.959704 4.276750 -2.486490 -1.026341 1.780567 0.644715 -0.439861 0.763100 0.276307 19.239500 4.295360 1.370960 16.028900 7.504430 1.282900 2.000000 -2.000000 0.000000 93.522598 168.537994 -1.062320 71.045502 -0.259258 0.129354 -179.919006 -179.897995 3.820500 -2.000000 2.000000 0.000000 -105.777000 -164.509003 5.410110 -89.883301 0.215127 0.136725 -0.060902 0.045212 -153.289001 -13.757818 -6.062211 0.525700 35.056126 2.336944 2.667648 10.155252 -10.469911 1.710776 -26.979507 -3.122520 2.220571 61.644569 -1.033178 -4.036049 3.400740 -4.204512 0.126569 
-2.584406 45.223900 7.525122 0.137355 5.517560 -6.274980 -1.376061 3.599299 -0.996069 -0.589740 1.542557 -0.426887 19.136700 3.486980 1.981470 15.791100 7.119130 1.600950 2.000000 -2.000000 0.000000 95.474998 165.520996 6.538110 64.453598 -0.273808 0.123403 -179.912003 -179.891998 5.324420 -2.000000 2.000000 0.000000 -107.342003 -169.819000 6.126470 -101.171997 0.190250 0.114789 -0.059636 0.040654 -151.598999 -7.859528 -9.371424 3.705456 29.025351 2.484458 2.295089 -7.411170 -3.106456 -0.450404 -36.052673 -6.280262 4.139662 78.361641 0.315379 -4.570971 3.140718 -2.541550 0.169272 
-2.425908 43.770061 7.307511 0.618379 5.780920 -5.064000 -1.092001 5.177431 -2.415406 -0.468000 2.218899 -1.035174 18.899500 4.039470 1.575510 15.892800 7.231070 1.451420 2.000000 -2.000000 0.000000 -83.448502 12.983700 -169.600998 61.670399 -0.279728 0.120395 0.071177 -0.098152 -170.348999 -2.000000 2.000000 0.000000 -104.627998 -171.938995 1.991190 -107.363998 0.176961 0.111410 -0.058233 0.034860 -149.470993 -8.759632 -10.117850 2.685487 30.272249 2.393250 2.405404 -15.619777 -0.690893 -0.233127 -41.106583 -8.407243 3.440248 84.608185 0.928185 -4.725147 2.479822 -0.862120 0.108544 
-2.577475 44.153812 7.462628 1.364080 5.662470 -6.554530 -0.957110 5.536755 -0.918462 -0.410190 2.372895 -0.393626 19.531401 3.308880 1.515360 16.065500 7.073220 1.333760 2.000000 -2.000000 0.000000 96.003700 167.257004 7.772600 66.113800 -0.270209 0.125059 0.080838 -0.097992 -170.281006 -2.000000 2.000000 0.000000 -101.287003 -169.559998 0.071117 -106.416000 0.178970 0.112020 -0.058933 0.037870 -150.574005 -8.910891 -10.165833 2.090126 29.211134 2.400449 2.349312 -13.552235 1.579405 0.495602 -39.619160 -6.208289 3.696824 77.736649 0.318706 -4.591353 1.037524 0.081903 0.134298 
-3.139626 45.732777 7.852172 2.078850 5.191910 -3.825360 -0.635319 4.779124 -0.994761 -0.272280 2.048196 -0.426326 20.189800 2.231560 1.797920 16.165899 6.793300 1.403830 2.000000 -2.000000 0.000000 95.425797 166.057007 2.994410 71.436096 -0.258375 0.129653 -179.925003 -179.906006 7.043170 -2.000000 2.000000 0.000000 -99.293198 -166.852997 1.089740 -99.814903 0.193208 0.115337 -0.056771 0.027484 -146.785004 -9.604978 -8.571463 1.236360 28.743219 2.454346 2.283247 -4.646827 -3.391482 -0.342987 -31.581675 -4.463737 0.425093 61.834972 -0.934594 -4.078306 -0.694880 -1.105344 0.044153 
-3.862804 46.479042 8.182301 3.366200 3.646060 0.946921 -0.239889 3.943499 -1.270462 -0.102810 1.690071 -0.544484 21.098600 1.565960 1.472810 16.389000 6.682140 1.134100 2.000000 -2.000000 0.000000 97.398903 167.046005 2.108030 75.068901 -0.250076 0.132150 -179.925003 -179.906006 7.091990 -2.000000 2.000000 0.000000 -98.578697 -164.246002 0.790313 -94.131302 0.205703 0.116864 -0.057536 0.031570 -148.268997 -13.410605 -5.692158 0.559822 32.904785 2.367813 2.543490 0.679647 -6.619108 -0.112730 -22.647579 -1.525960 -2.507437 44.296318 -1.963821 -3.238930 -4.460598 -4.449139 -0.489737 
-4.590351 45.754002 8.364309 4.007330 2.367250 4.091840 -0.612710 3.809470 -0.553692 -0.262590 1.632630 -0.237296 21.030500 1.108910 0.730158 16.052000 6.586130 0.632619 2.000000 -2.000000 0.000000 99.264999 168.923996 0.872179 80.049400 -0.238474 0.134708 0.073122 -0.091264 -171.589996 -2.000000 2.000000 0.000000 -99.524597 -162.472000 -0.610520 -92.480904 0.209354 0.117075 -0.057634 0.032052 -148.445007 -16.293144 -3.043540 1.845462 36.729641 2.263809 2.786896 -8.181772 0.070410 0.279540 -16.504108 1.275303 -3.597867 33.938412 -2.340890 -2.632628 -13.340884 -2.427235 -0.725042 
-4.951204 44.680431 8.137500 4.433830 0.593920 3.971930 -1.653470 4.171363 0.301345 -0.708630 1.787727 0.129148 21.514900 0.570660 1.378880 16.182899 6.697300 0.887665 2.000000 -2.000000 0.000000 97.030197 171.115997 -5.294560 83.652901 -0.229964 0.135925 0.077994 -0.093514 -168.386993 -2.000000 2.000000 0.000000 -102.612999 -166.358002 -0.395873 -89.219299 0.216712 0.136712 -0.058895 0.037711 -150.514999 -17.514879 -0.321237 1.391766 33.714176 2.430289 2.574939 -16.336790 4.641441 1.915271 -16.231688 3.868009 -4.609394 32.029942 -2.282229 -2.546963 -17.921301 -1.020786 -0.349726 
-5.157131 44.300545 7.873753 5.284190 1.108550 4.116360 -1.771139 5.240788 -0.164627 -0.759060 2.246052 -0.070554 22.954399 -1.717280 2.257350 16.871000 5.963620 1.381580 2.000000 -2.000000 0.000000 -87.098701 8.255910 169.307999 82.520103 -0.232647 0.135600 0.077187 -0.092180 -167.830002 -2.000000 2.000000 0.000000 -103.504997 -172.309998 -2.285230 -84.561096 0.227808 0.136109 -0.056596 0.026460 -146.414001 -18.146549 -0.877938 1.006882 31.555515 2.414440 2.445464 -16.752075 6.412673 2.594440 -18.762747 3.046349 -5.517926 34.994244 -2.137868 -2.746274 -18.727514 0.312148 0.181172 
-5.225803 44.476604 7.976710 5.870590 1.272590 5.941570 -1.297241 5.276698 -0.615022 -0.555960 2.261442 -0.263581 24.036400 -1.806470 1.940570 17.211800 5.850110 1.226670 2.000000 -2.000000 0.000000 94.179100 171.714005 -6.308780 79.727097 -0.239231 0.134573 0.073671 -0.076235 -165.291000 -2.000000 2.000000 0.000000 -101.289001 -173.783997 -6.041270 -83.984901 0.229176 0.135972 -0.057196 0.029825 -147.634995 -18.091537 -1.724345 -1.731496 29.884731 2.433922 2.354910 -16.508385 5.447012 2.206196 -18.553167 3.042695 -4.683498 34.011772 -2.173994 -2.709541 -19.643156 -1.171175 -0.480000 
-4.979513 44.618439 8.235032 6.592730 0.960405 5.208800 -1.250201 4.425568 -0.143145 -0.535800 1.896672 -0.061348 25.352600 -1.752150 1.998140 17.646099 5.933680 1.244470 2.000000 -2.000000 0.000000 94.851997 170.438995 -4.094980 77.783699 -0.243779 0.133669 0.068111 -0.064894 -160.779007 -2.000000 2.000000 0.000000 -99.785500 -173.738007 -7.329380 -81.172401 0.235830 0.135104 -0.056875 0.028077 -147.000000 -17.545486 -1.645551 -1.563997 28.441118 2.429144 2.272992 -18.635952 5.011126 2.325719 -18.418079 3.249083 -4.099732 32.666885 -2.186828 -2.634723 -18.932741 -0.915319 -0.388507 
-4.737525 44.614204 8.406033 7.189190 1.240180 4.180030 -1.384391 4.284644 0.165612 -0.593310 1.836276 0.070977 25.969999 -2.476560 2.182950 17.887300 5.775300 1.330100 2.000000 -2.000000 0.000000 93.358498 170.806000 -6.418340 73.379402 -0.253955 0.131054 0.066148 -0.060261 -158.981995 -2.000000 2.000000 0.000000 -100.137001 -174.841003 -7.131450 -73.809097 0.252971 0.131301 -0.055945 0.022216 -144.880997 -17.479387 -1.973985 -1.666108 27.479971 2.408575 2.217351 -18.163082 4.282728 2.058046 -18.975454 2.882652 -3.255951 32.814159 -2.183913 -2.640599 -18.645519 -0.489455 -0.239094 
-4.437201 44.627831 8.677071 7.385070 1.413960 3.699060 -1.093400 4.042037 0.515093 -0.468600 1.732302 0.220754 26.423700 -2.782820 2.075930 18.012800 5.696060 1.255720 2.000000 -2.000000 0.000000 -87.313499 6.462230 170.669006 62.334499 -0.278328 0.121139 0.064417 -0.055800 -157.272995 -2.000000 2.000000 0.000000 80.115799 -4.372320 170.643997 -62.168499 0.278679 0.120907 -0.054869 0.012267 -141.307007 -17.093031 -2.480637 -1.899263 26.919411 2.410056 2.179394 -16.049530 4.399219 1.911219 -18.978506 2.613863 -2.453691 32.981182 -2.177614 -2.645102 -18.585415 -0.538407 -0.267110 
-4.170544 44.736633 9.103262 7.872200 0.957687 4.986070 -1.052100 3.866653 -0.107624 -0.450900 1.657137 -0.046125 27.203899 -3.166750 2.252470 18.316401 5.668920 1.339540 2.000000 -2.000000 0.000000 -86.783997 3.846740 167.227997 47.090302 -0.307932 0.100191 0.051339 -0.045894 -153.542999 -2.000000 2.000000 0.000000 80.572701 -3.162060 166.759995 -46.289501 0.309322 0.098828 -0.054593 0.007900 -139.744003 -17.253138 -2.551574 -1.926295 26.649063 2.365808 2.184321 -13.301703 4.296900 1.563738 -18.501345 2.891217 -2.057600 32.037308 -2.207136 -2.594797 -18.969879 -1.742159 -0.804326 
-3.884406 44.811089 9.591854 8.369630 0.618344 5.930920 -1.132880 3.763473 -0.602507 -0.485520 1.612917 -0.258218 27.629900 -3.494670 2.324810 18.530701 5.606300 1.375440 2.000000 -2.000000 0.000000 -85.803596 2.241760 161.488998 31.680000 -0.331193 0.071859 0.046299 -0.023056 -145.182999 -2.000000 2.000000 0.000000 81.143402 -2.607260 158.998001 -31.045300 0.331982 0.070510 -0.054724 -0.000455 -133.268997 -17.147017 -2.753891 -2.306821 26.258139 2.339246 2.156650 -13.047587 4.302463 1.511473 -18.094620 2.898843 -2.037971 31.292389 -2.198541 -2.559329 -19.402536 -2.249272 -1.133467 
-3.571028 44.789230 9.970894 8.887050 0.492068 5.565300 -1.221780 3.817856 -0.544792 -0.523620 1.636224 -0.233482 28.091801 -3.838380 2.475750 18.814301 5.570140 1.454240 2.000000 -2.000000 0.000000 -85.014198 1.958890 152.750000 22.002199 -0.341607 0.051280 0.044633 -0.000028 -136.932007 -2.000000 2.000000 0.000000 81.827400 -3.710610 149.835007 -23.222900 0.340487 0.053911 -0.057448 -0.021374 -125.730003 -17.236116 -2.803509 -1.653209 26.309767 2.325993 2.192117 -13.583657 4.092037 1.490734 -18.359030 2.660483 -2.457428 31.477873 -2.205031 -2.557223 -19.465244 -2.116118 -1.123864 
-3.242630 44.684807 10.159588 9.454240 0.876603 5.038680 -1.145269 3.836952 -0.608082 -0.490830 1.644408 -0.260607 28.390301 -4.348010 2.813500 18.998600 5.489500 1.647450 2.000000 -2.000000 0.000000 -85.233704 3.795320 148.283997 21.689699 -0.341885 0.050588 0.044693 -0.004376 -138.483994 -2.000000 2.000000 0.000000 82.470703 -5.739180 148.522003 -23.828400 0.339911 0.055236 -0.056667 -0.017125 -127.273003 -18.106709 -3.301944 -0.025680 27.477770 2.238911 2.286225 -14.023975 3.476098 1.349921 -19.615601 1.479978 -4.049232 33.158749 -2.171401 -2.668676 -19.753893 -1.563003 -0.937177 
